<?xml version="1.0" encoding="UTF-8"?>
<!DOCTYPE svg PUBLIC "-//W3C//DTD SVG 1.1//EN" "http://www.w3.org/Graphics/SVG/1.1/DTD/svg11.dtd">
<svg version="1.2" width="122.61mm" height="131.43mm" viewBox="5420 12127 12261 13143" preserveAspectRatio="xMidYMid" fill-rule="evenodd" stroke-width="28.222" stroke-linejoin="round" xmlns="http://www.w3.org/2000/svg" xmlns:ooo="http://xml.openoffice.org/svg/export" xmlns:xlink="http://www.w3.org/1999/xlink" xmlns:presentation="http://sun.com/xmlns/staroffice/presentation" xmlns:smil="http://www.w3.org/2001/SMIL20/" xmlns:anim="urn:oasis:names:tc:opendocument:xmlns:animation:1.0" xml:space="preserve">
 <defs class="ClipPathGroup">
  <clipPath id="presentation_clip_path" clipPathUnits="userSpaceOnUse">
   <rect x="5420" y="12127" width="12261" height="13143"/>
  </clipPath>
  <clipPath id="presentation_clip_path_shrink" clipPathUnits="userSpaceOnUse">
   <rect x="5432" y="12140" width="12237" height="13117"/>
  </clipPath>
 </defs>
 <defs class="TextShapeIndex">
  <g ooo:slide="id1" ooo:id-list="id3 id4 id5 id6 id7"/>
 </defs>
 <defs class="EmbeddedBulletChars">
  <g id="bullet-char-template-57356" transform="scale(0.00048828125,-0.00048828125)">
   <path d="M 580,1141 L 1163,571 580,0 -4,571 580,1141 Z"/>
  </g>
  <g id="bullet-char-template-57354" transform="scale(0.00048828125,-0.00048828125)">
   <path d="M 8,1128 L 1137,1128 1137,0 8,0 8,1128 Z"/>
  </g>
  <g id="bullet-char-template-10146" transform="scale(0.00048828125,-0.00048828125)">
   <path d="M 174,0 L 602,739 174,1481 1456,739 174,0 Z M 1358,739 L 309,1346 659,739 1358,739 Z"/>
  </g>
  <g id="bullet-char-template-10132" transform="scale(0.00048828125,-0.00048828125)">
   <path d="M 2015,739 L 1276,0 717,0 1260,543 174,543 174,936 1260,936 717,1481 1274,1481 2015,739 Z"/>
  </g>
  <g id="bullet-char-template-10007" transform="scale(0.00048828125,-0.00048828125)">
   <path d="M 0,-2 C -7,14 -16,27 -25,37 L 356,567 C 262,823 215,952 215,954 215,979 228,992 255,992 264,992 276,990 289,987 310,991 331,999 354,1012 L 381,999 492,748 772,1049 836,1024 860,1049 C 881,1039 901,1025 922,1006 886,937 835,863 770,784 769,783 710,716 594,584 L 774,223 C 774,196 753,168 711,139 L 727,119 C 717,90 699,76 672,76 641,76 570,178 457,381 L 164,-76 C 142,-110 111,-127 72,-127 30,-127 9,-110 8,-76 1,-67 -2,-52 -2,-32 -2,-23 -1,-13 0,-2 Z"/>
  </g>
  <g id="bullet-char-template-10004" transform="scale(0.00048828125,-0.00048828125)">
   <path d="M 285,-33 C 182,-33 111,30 74,156 52,228 41,333 41,471 41,549 55,616 82,672 116,743 169,778 240,778 293,778 328,747 346,684 L 369,508 C 377,444 397,411 428,410 L 1163,1116 C 1174,1127 1196,1133 1229,1133 1271,1133 1292,1118 1292,1087 L 1292,965 C 1292,929 1282,901 1262,881 L 442,47 C 390,-6 338,-33 285,-33 Z"/>
  </g>
  <g id="bullet-char-template-9679" transform="scale(0.00048828125,-0.00048828125)">
   <path d="M 813,0 C 632,0 489,54 383,161 276,268 223,411 223,592 223,773 276,916 383,1023 489,1130 632,1184 813,1184 992,1184 1136,1130 1245,1023 1353,916 1407,772 1407,592 1407,412 1353,268 1245,161 1136,54 992,0 813,0 Z"/>
  </g>
  <g id="bullet-char-template-8226" transform="scale(0.00048828125,-0.00048828125)">
   <path d="M 346,457 C 273,457 209,483 155,535 101,586 74,649 74,723 74,796 101,859 155,911 209,963 273,989 346,989 419,989 480,963 531,910 582,859 608,796 608,723 608,648 583,586 532,535 482,483 420,457 346,457 Z"/>
  </g>
  <g id="bullet-char-template-8211" transform="scale(0.00048828125,-0.00048828125)">
   <path d="M -4,459 L 1135,459 1135,606 -4,606 -4,459 Z"/>
  </g>
  <g id="bullet-char-template-61548" transform="scale(0.00048828125,-0.00048828125)">
   <path d="M 173,740 C 173,903 231,1043 346,1159 462,1274 601,1332 765,1332 928,1332 1067,1274 1183,1159 1299,1043 1357,903 1357,740 1357,577 1299,437 1183,322 1067,206 928,148 765,148 601,148 462,206 346,322 231,437 173,577 173,740 Z"/>
  </g>
 </defs>
 <defs class="TextEmbeddedBitmaps"/>
 <g class="SlideGroup">
  <g>
   <g id="container-id1">
    <g id="id1" class="Slide" clip-path="url(#presentation_clip_path)">
     <g class="Page">
      <g class="com.sun.star.drawing.CustomShape">
       <g id="id3">
        <rect class="BoundingBox" stroke="none" fill="none" x="5458" y="17110" width="7899" height="8161"/>
        <path fill="rgb(117,190,233)" stroke="none" d="M 9406,17190 C 11599,17190 13275,18921 13275,21189 13275,23457 11599,25189 9406,25189 7213,25189 5538,23457 5538,21189 5538,18921 7213,17190 9406,17190 Z M 5538,17190 L 5538,17190 Z M 13276,25190 L 13276,25190 Z"/>
        <path fill="none" stroke="rgb(255,255,255)" stroke-width="159" stroke-linejoin="round" d="M 9406,17190 C 11599,17190 13275,18921 13275,21189 13275,23457 11599,25189 9406,25189 7213,25189 5538,23457 5538,21189 5538,18921 7213,17190 9406,17190 Z"/>
       </g>
      </g>
      <g class="com.sun.star.drawing.CustomShape">
       <g id="id4">
        <rect class="BoundingBox" stroke="none" fill="none" x="5419" y="12684" width="6529" height="5987"/>
        <path fill="rgb(189,217,107)" stroke="none" d="M 6329,13587 C 5914,13681 5593,14190 5686,14605 L 6435,17930 C 6529,18345 7037,18668 7452,18574 L 11035,17767 C 11450,17674 11772,17165 11679,16749 L 10930,13424 C 10836,13009 10327,12687 9912,12780 L 6329,13587 Z M 5499,13774 L 5499,13774 Z M 11867,17580 L 11867,17580 Z"/>
        <path fill="none" stroke="rgb(255,255,255)" stroke-width="159" stroke-linejoin="round" d="M 6329,13587 C 5914,13681 5593,14190 5686,14605 L 6435,17930 C 6529,18345 7037,18668 7452,18574 L 11035,17767 C 11450,17674 11772,17165 11679,16749 L 10930,13424 C 10836,13009 10327,12687 9912,12780 L 6329,13587 Z"/>
       </g>
      </g>
      <g class="com.sun.star.drawing.CustomShape">
       <g id="id5">
        <rect class="BoundingBox" stroke="none" fill="none" x="9784" y="12126" width="7898" height="8161"/>
        <path fill="rgb(117,190,233)" stroke="none" d="M 13732,12206 C 15925,12206 17600,13937 17600,16205 17600,18473 15925,20205 13732,20205 11539,20205 9864,18473 9864,16205 9864,13937 11539,12206 13732,12206 Z M 9864,12206 L 9864,12206 Z M 17601,20206 L 17601,20206 Z"/>
        <path fill="none" stroke="rgb(255,255,255)" stroke-width="159" stroke-linejoin="round" d="M 13732,12206 C 15925,12206 17600,13937 17600,16205 17600,18473 15925,20205 13732,20205 11539,20205 9864,18473 9864,16205 9864,13937 11539,12206 13732,12206 Z"/>
       </g>
      </g>
      <g class="com.sun.star.drawing.CustomShape">
       <g id="id6">
        <rect class="BoundingBox" stroke="none" fill="none" x="10177" y="19338" width="6717" height="5275"/>
        <path fill="rgb(189,217,107)" stroke="none" d="M 11109,19418 C 10683,19418 10257,19844 10257,20270 L 10257,23679 C 10257,24105 10683,24532 11109,24532 L 15960,24532 C 16386,24532 16813,24105 16813,23679 L 16813,20270 C 16813,19844 16386,19418 15960,19418 L 11109,19418 Z M 10257,19418 L 10257,19418 Z M 16813,24532 L 16813,24532 Z"/>
        <path fill="none" stroke="rgb(255,255,255)" stroke-width="159" stroke-linejoin="round" d="M 11109,19418 C 10683,19418 10257,19844 10257,20270 L 10257,23679 C 10257,24105 10683,24532 11109,24532 L 15960,24532 C 16386,24532 16813,24105 16813,23679 L 16813,20270 C 16813,19844 16386,19418 15960,19418 L 11109,19418 Z"/>
       </g>
      </g>
      <g class="com.sun.star.drawing.ClosedBezierShape">
       <g id="id7">
        <rect class="BoundingBox" stroke="none" fill="none" x="6941" y="16051" width="9815" height="6196"/>
        <defs>
         <mask id="mask1">
          <g>
           <defs>
            <linearGradient id="gradient1" x1="11883" y1="16122" x2="11883" y2="22245" gradientUnits="userSpaceOnUse">
             <stop offset="0.5" style="stop-color:rgb(97,97,97)"/>
             <stop offset="0.5" style="stop-color:rgb(97,97,97)"/>
             <stop offset="1" style="stop-color:rgb(97,97,97)"/>
             <stop offset="1" style="stop-color:rgb(97,97,97)"/>
            </linearGradient>
           </defs>
           <path style="fill:url(#gradient1)" d="M 7012,16122 L 16754,16122 16754,22245 7012,22245 7012,16122 Z"/>
          </g>
         </mask>
        </defs>
        <g style="mask:url(#mask1)">
         <path fill="rgb(128,128,128)" stroke="none" d="M 16754,18157 L 11760,20062 8621,18594 8737,21832 C 8737,21890 8716,21922 8679,21925 8626,21930 8586,21967 8560,22033 L 8456,22033 C 8456,21946 8451,21882 8440,21845 8403,21872 8374,21882 8356,21882 8305,21882 8255,21832 8205,21734 8154,21633 8130,21551 8136,21482 L 8218,18364 7012,17564 7012,17476 11826,16122 16754,17932 16754,18157 Z M 14494,20603 C 14494,20695 14468,20812 14410,20950 14354,21090 14296,21183 14235,21233 14211,21254 14115,21307 13951,21395 13824,21480 13625,21596 13363,21744 12669,22078 12083,22245 11598,22245 11455,22245 11193,22179 10809,22049 10425,21922 10168,21813 10041,21726 9980,21668 9892,21583 9770,21472 9386,21117 9195,20775 9195,20449 9195,20327 9259,19869 9391,19074 L 11744,20192 14282,19299 C 14425,19869 14494,20303 14494,20603 Z M 12070,17776 L 12070,17670 C 12014,17577 11903,17534 11734,17534 11580,17534 11506,17582 11506,17675 11506,17821 11636,17895 11895,17895 11956,17895 12014,17855 12070,17776 Z M 11360,17738 L 11344,17590 C 11055,17598 10716,17646 10321,17733 9980,17815 9643,17897 9307,17977 9325,18027 9341,18062 9360,18083 10096,17860 10764,17749 11360,17738 Z M 9161,18131 C 9161,18011 9119,17950 9034,17950 9023,17950 8817,18048 8419,18239 8430,18234 8440,18229 8456,18226 8491,18226 8528,18252 8565,18305 8602,18356 8618,18401 8607,18435 8732,18388 8915,18303 9156,18178 9161,18168 9161,18152 9161,18131 Z"/>
        </g>
        <path fill="rgb(255,255,255)" stroke="none" d="M 16683,18086 L 11689,19991 8550,18523 8666,21761 C 8666,21819 8645,21851 8608,21854 8555,21859 8515,21896 8489,21962 L 8385,21962 C 8385,21875 8380,21811 8369,21774 8332,21801 8303,21811 8285,21811 8234,21811 8184,21761 8134,21663 8083,21562 8059,21480 8065,21411 L 8147,18293 6941,17493 6941,17405 11755,16051 16683,17861 16683,18086 Z M 14423,20532 C 14423,20624 14397,20741 14339,20879 14283,21019 14225,21112 14164,21162 14140,21183 14044,21236 13880,21324 13753,21409 13554,21525 13292,21673 12598,22007 12012,22174 11527,22174 11384,22174 11122,22108 10738,21978 10354,21851 10097,21742 9970,21655 9909,21597 9821,21512 9699,21401 9315,21046 9124,20704 9124,20378 9124,20256 9188,19798 9320,19003 L 11673,20121 14211,19228 C 14354,19798 14423,20232 14423,20532 Z M 11999,17705 L 11999,17599 C 11943,17506 11832,17463 11663,17463 11509,17463 11435,17511 11435,17604 11435,17750 11565,17824 11824,17824 11885,17824 11943,17784 11999,17705 Z M 11289,17667 L 11273,17519 C 10984,17527 10645,17575 10250,17662 9909,17744 9572,17826 9236,17906 9254,17956 9270,17991 9289,18012 10025,17789 10693,17678 11289,17667 Z M 9090,18060 C 9090,17940 9048,17879 8963,17879 8952,17879 8746,17977 8348,18168 8359,18163 8369,18158 8385,18155 8420,18155 8457,18181 8494,18234 8531,18285 8547,18330 8536,18364 8661,18317 8844,18232 9085,18107 9090,18097 9090,18081 9090,18060 Z"/>
       </g>
      </g>
     </g>
    </g>
   </g>
  </g>
 </g>
</svg>